<svg xmlns="http://www.w3.org/2000/svg" xml:space="preserve" viewBox="0 0 25 25">
  <path fill="#1a1a1a" d="M4.547 0A4.546 4.546 0 0 0 .002 4.447L0 4.567v15.867C0 22.955 2.035 25 4.547 25h15.906C22.966 25 25 22.955 25 20.434V4.566a4.544 4.544 0 0 0-1.506-3.384A4.511 4.511 0 0 0 20.43 0H4.547zm-.658 3.879h6.763c.568 0 1.03.463 1.03 1.031v2.922c0 .568-.462 1.031-1.03 1.031H3.89a1.033 1.033 0 0 1-1.032-1.031V4.91c0-.568.464-1.031 1.032-1.031zm10.177.955h7.793a.514.514 0 1 1 0 1.03h-7.793a.514.514 0 1 1 0-1.03zM3.89 4.91v2.924h6.761l.002-2.924H3.89zm10.177 2.836h7.793a.514.514 0 1 1 0 1.03h-7.793a.514.514 0 1 1 0-1.03zm-10.693 2.91h7.793a.516.516 0 0 1 0 1.032H3.373a.516.516 0 0 1 0-1.032zm10.693 0h7.793a.516.516 0 0 1 0 1.032h-7.793a.516.516 0 0 1 0-1.032zM3.373 13.568h7.793a.516.516 0 0 1 0 1.032H3.373a.516.516 0 0 1 0-1.032zm10.693 0h7.793a.516.516 0 0 1 0 1.032h-7.793a.516.516 0 0 1 0-1.032zm.516 2.323h6.764a1.03 1.03 0 0 1 1.029 1.03v2.923c0 .568-.461 1.031-1.03 1.031h-6.763a1.033 1.033 0 0 1-1.031-1.031v-2.922c0-.568.463-1.031 1.031-1.031zm-11.209.59h7.793a.516.516 0 0 1 0 1.03H3.373a.516.516 0 0 1 0-1.03zm11.209.44v2.923h6.762l.002-2.922h-6.764zM3.373 19.394h7.793a.514.514 0 1 1 0 1.03l-7.793-.001a.514.514 0 1 1 0-1.03z"/>
</svg>
