<svg xmlns="http://www.w3.org/2000/svg" xml:space="preserve" viewBox="0 0 25 25">
  <path fill="#1a1a1a" d="M4.548 0A4.547 4.547 0 0 0 .002 4.447L0 4.567v15.866C0 22.955 2.036 25 4.548 25h15.904C22.965 25 25 22.955 25 20.433V4.566a4.544 4.544 0 0 0-1.506-3.384A4.51 4.51 0 0 0 20.429 0Zm0 1.033H20.43c.926 0 1.747.34 2.37.911l.003.002.003.003a3.492 3.492 0 0 1 1.166 2.617v15.868a3.51 3.51 0 0 1-3.52 3.534H4.549a3.511 3.511 0 0 1-3.52-3.534V4.566l.001-.094a3.501 3.501 0 0 1 3.519-3.44z"/>
  <path fill="#1a1a1a" d="M10.652 3.88H3.888c-.568 0-1.03.462-1.03 1.03v2.923c0 .568.462 1.03 1.03 1.03h6.764c.568 0 1.03-.462 1.03-1.03V4.91c0-.568-.462-1.03-1.03-1.03zm-.002 3.953H3.888V4.91h6.764zm.002.515v-.515zm10.693 7.542H14.58c-.568 0-1.03.463-1.03 1.031v2.923c0 .568.462 1.03 1.03 1.03h6.764c.568 0 1.03-.462 1.03-1.03v-2.923c0-.568-.462-1.03-1.03-1.03zm-.002 3.954h-6.762v-2.923h6.764zm.002.515v-.515zm-10.178-9.702H3.373a.515.515 0 1 0 0 1.03h7.794a.515.515 0 1 0 0-1.03zm0 2.912H3.373a.515.515 0 1 0 0 1.03h7.794a.515.515 0 1 0 0-1.03zm0 2.911H3.373a.515.515 0 1 0 0 1.03h7.794a.515.515 0 1 0 0-1.03zm0 2.912H3.373a.515.515 0 1 0 0 1.03h7.794a.515.515 0 1 0 0-1.03zM21.86 4.833h-7.794a.515.515 0 1 0 0 1.03h7.794a.515.515 0 1 0 0-1.03zm0 2.912h-7.794a.515.515 0 1 0 0 1.03h7.794a.515.515 0 1 0 0-1.03zm0 2.912h-7.794a.515.515 0 1 0 0 1.03h7.794a.515.515 0 1 0 0-1.03zm0 2.912h-7.794a.515.515 0 1 0 0 1.03h7.794a.515.515 0 1 0 0-1.03z"/>
</svg>
